<svg width="30" height="30" viewBox="0 0 64 64" fill="none" xmlns="http://www.w3.org/2000/svg">
<path d="M32 58.6667C31.2444 58.6667 30.6115 58.4107 30.1013 57.8987C29.5911 57.3867 29.3351 56.7538 29.3333 56V50.6667H13.3333C12.5777 50.6667 11.9448 50.4107 11.4346 49.8987C10.9244 49.3867 10.6684 48.7538 10.6666 48C10.6666 47.2444 10.9226 46.6116 11.4346 46.1013C11.9466 45.5911 12.5795 45.3351 13.3333 45.3333H50.6666C51.4222 45.3333 52.056 45.5893 52.568 46.1013C53.08 46.6133 53.3351 47.2462 53.3333 48C53.3333 48.7556 53.0773 49.3893 52.5653 49.9013C52.0533 50.4133 51.4204 50.6684 50.6666 50.6667H34.6666V56C34.6666 56.7556 34.4106 57.3893 33.8986 57.9013C33.3866 58.4133 32.7537 58.6684 32 58.6667ZM24 30.6667C24.7555 30.6667 25.3893 30.4107 25.9013 29.8987C26.4133 29.3867 26.6684 28.7538 26.6666 28C26.6666 27.2444 26.4106 26.6116 25.8986 26.1013C25.3866 25.5911 24.7537 25.3351 24 25.3333C23.2444 25.3333 22.6115 25.5893 22.1013 26.1013C21.5911 26.6133 21.3351 27.2462 21.3333 28C21.3333 28.7556 21.5893 29.3893 22.1013 29.9013C22.6133 30.4133 23.2462 30.6684 24 30.6667ZM40 30.6667C40.7555 30.6667 41.3893 30.4107 41.9013 29.8987C42.4133 29.3867 42.6684 28.7538 42.6666 28C42.6666 27.2444 42.4106 26.6116 41.8986 26.1013C41.3866 25.5911 40.7537 25.3351 40 25.3333C39.2444 25.3333 38.6115 25.5893 38.1013 26.1013C37.5911 26.6133 37.3351 27.2462 37.3333 28C37.3333 28.7556 37.5893 29.3893 38.1013 29.9013C38.6133 30.4133 39.2462 30.6684 40 30.6667ZM16 42.6667C15.2444 42.6667 14.6115 42.4107 14.1013 41.8987C13.5911 41.3867 13.3351 40.7538 13.3333 40V23.8C13.3333 23.4889 13.3555 23.1893 13.4 22.9013C13.4444 22.6133 13.5111 22.3351 13.6 22.0667L17.2 11.6C17.5555 10.5333 18.2 9.66667 19.1333 9C20.0666 8.33333 21.1111 8 22.2666 8H41.7333C42.8888 8 43.9333 8.33333 44.8666 9C45.8 9.66667 46.4444 10.5333 46.8 11.6L50.4 22.0667C50.4888 22.3333 50.5555 22.6116 50.6 22.9013C50.6444 23.1911 50.6666 23.4907 50.6666 23.8V40C50.6666 40.7556 50.4115 41.3893 49.9013 41.9013C49.3911 42.4133 48.7573 42.6684 48 42.6667C47.2444 42.6667 46.6115 42.4107 46.1013 41.8987C45.5911 41.3867 45.3351 40.7538 45.3333 40V37.3333H18.6666V40C18.6666 40.7556 18.4106 41.3893 17.8986 41.9013C17.3866 42.4133 16.7537 42.6684 16 42.6667ZM20.4 18.6667H43.6L41.7333 13.3333H22.2666L20.4 18.6667Z" fill="#fc0000"/>
</svg>
