<svg width="25" height="25" viewBox="0 0 54 46" fill="none" xmlns="http://www.w3.org/2000/svg">
<path d="M9.83333 0.333008C8.07333 0.333008 6.58 1.45301 6.04667 2.99967L0.5 18.9997V40.333C0.5 41.0403 0.780951 41.7185 1.28105 42.2186C1.78115 42.7187 2.45942 42.9997 3.16667 42.9997H5.83333C6.54058 42.9997 7.21885 42.7187 7.71895 42.2186C8.21905 41.7185 8.5 41.0403 8.5 40.333V37.6663H22.6333C22.1099 35.9367 21.8404 34.1401 21.8333 32.333C21.8376 29.1077 22.6775 25.9386 24.2712 23.1345C25.8648 20.3304 28.1578 17.9871 30.9267 16.333H5.83333L9.83333 4.33301H39.1667L42.3133 13.7463C43.948 13.9168 45.553 14.3023 47.0867 14.893L42.9533 2.99967C42.42 1.45301 40.9267 0.333008 39.1667 0.333008H9.83333ZM37.8333 18.9997C37.6704 18.9966 37.5116 19.0511 37.3848 19.1535C37.258 19.2559 37.1713 19.3997 37.14 19.5597L36.6333 23.0797C35.8333 23.4263 35.06 23.853 34.3667 24.333L31.06 22.9997C30.7667 22.9997 30.42 22.9997 30.2333 23.3463L27.5667 27.9597C27.4067 28.253 27.46 28.5997 27.7267 28.813L30.5533 30.9997C30.447 31.8854 30.447 32.7806 30.5533 33.6663L27.7267 35.853C27.6068 35.9558 27.5257 36.0964 27.4966 36.2515C27.4675 36.4067 27.4922 36.5671 27.5667 36.7063L30.2333 41.3197C30.3933 41.6663 30.74 41.6663 31.06 41.6663L34.3667 40.333C35.06 40.813 35.8067 41.2663 36.6333 41.5863L37.14 45.1063C37.1933 45.4263 37.46 45.6663 37.8333 45.6663H43.1667C43.46 45.6663 43.7533 45.4263 43.8067 45.1063L44.3133 41.5863C45.1133 41.2397 45.8333 40.813 46.5533 40.333L49.8333 41.6663C50.18 41.6663 50.5267 41.6663 50.7133 41.3197L53.38 36.7063C53.4545 36.5671 53.4792 36.4067 53.4501 36.2515C53.421 36.0964 53.3398 35.9558 53.22 35.853L50.3667 33.6663C50.42 33.213 50.4733 32.7863 50.4733 32.333C50.4733 31.8797 50.4467 31.453 50.3667 30.9997L53.1933 28.813C53.3132 28.7102 53.3943 28.5696 53.4234 28.4145C53.4525 28.2593 53.4278 28.0989 53.3533 27.9597L50.6867 23.3463C50.5267 22.9997 50.18 22.9997 49.8333 22.9997L46.5533 24.333C45.8333 23.853 45.1133 23.3997 44.2867 23.0797L43.78 19.5597C43.7632 19.4078 43.6917 19.2672 43.5788 19.1641C43.466 19.0611 43.3195 19.0026 43.1667 18.9997H37.8333ZM9.83333 21.6663C10.8942 21.6663 11.9116 22.0878 12.6618 22.8379C13.4119 23.5881 13.8333 24.6055 13.8333 25.6663C13.8333 26.7272 13.4119 27.7446 12.6618 28.4948C11.9116 29.2449 10.8942 29.6663 9.83333 29.6663C8.77247 29.6663 7.75505 29.2449 7.00491 28.4948C6.25476 27.7446 5.83333 26.7272 5.83333 25.6663C5.83333 24.6055 6.25476 23.5881 7.00491 22.8379C7.75505 22.0878 8.77247 21.6663 9.83333 21.6663ZM40.5 28.333C42.7133 28.333 44.5 30.1197 44.5 32.333C44.5 34.5463 42.7133 36.333 40.5 36.333C38.26 36.333 36.5 34.5463 36.5 32.333C36.5 30.1197 38.2867 28.333 40.5 28.333Z" fill="#fc0000"/>
</svg>
