<svg width="30" height="30" viewBox="0 0 64 64" fill="none" xmlns="http://www.w3.org/2000/svg">
<path d="M55.8933 43.867C55.92 43.467 56 43.067 56 42.667V44.0003L55.8933 43.867ZM29.3333 42.667C29.3333 44.5603 29.7333 46.3737 30.4533 48.0003H16V50.667C16 52.1337 14.8 53.3337 13.3333 53.3337H10.6667C9.2 53.3337 8 52.1337 8 50.667V29.3337L13.5467 13.3337C14.08 11.787 15.5733 10.667 17.3333 10.667H46.6667C48.4267 10.667 49.92 11.787 50.4533 13.3337L56 29.3337V42.667C56 35.307 50.0267 29.3337 42.6667 29.3337C35.3067 29.3337 29.3333 35.307 29.3333 42.667ZM21.3333 36.0003C21.3333 33.787 19.5467 32.0003 17.3333 32.0003C15.12 32.0003 13.3333 33.787 13.3333 36.0003C13.3333 38.2137 15.12 40.0003 17.3333 40.0003C19.5467 40.0003 21.3333 38.2137 21.3333 36.0003ZM50.6667 26.667L46.6667 14.667H17.3333L13.3333 26.667H50.6667ZM60.9867 56.507L50.0267 45.547C51.12 42.7737 50.5067 39.5203 48.2133 37.2537C45.8133 34.827 42.2133 34.347 39.3067 35.6803L44.48 40.8537L40.88 44.4803L35.5733 39.2803C34.1333 42.187 34.8 45.787 37.1467 48.2137C38.2057 49.294 39.5575 50.0413 41.0357 50.3635C42.5139 50.6856 44.0541 50.5687 45.4667 50.027L56.4267 60.9603C56.9067 61.467 57.6267 61.467 58.1067 60.9603L60.88 58.2137C61.4667 57.7337 61.4667 56.8803 60.9867 56.507Z" fill="#fc0000"/>
</svg>
